<?xml version="1.0" encoding="UTF-8"?> <svg xmlns="http://www.w3.org/2000/svg" id="svg2" width="98.3" height="31.1" viewBox="0 0 98.3 31.1"><defs><style> .cls-1 { fill: #0dab40; fill-rule: evenodd; } </style></defs><path id="path14" class="cls-1" d="m98.3,13.1c0-.1-.1-.2-.1-.2-.1-.1-.4-.1-.8-.1-1,0-1.9.5-2.3,1.3v-1c0-.1-.1-.2-.2-.2h-1.5c-.1,0-.2.1-.2.2v6.9c0,.1.1.2.2.2h1.6c.1,0,.2-.1.2-.2v-3.1c0-1.4,1-2.1,2.2-2.1.3,0,.6.1.7.1s.2,0,.2-.2v-1.6h0Zm-10.1-.3c2.2,0,3.9,1.5,3.9,3.8s-1.7,3.8-3.9,3.8-3.9-1.5-3.9-3.8,1.7-3.8,3.9-3.8Zm0,5.7c1.1,0,1.9-.8,1.9-1.9,0-1.2-.8-1.9-1.9-1.9s-1.9.8-1.9,1.9.8,1.9,1.9,1.9Zm-8.8-5.7c2.2,0,3.9,1.5,3.9,3.8s-1.7,3.8-3.9,3.8-3.9-1.5-3.9-3.8,1.7-3.8,3.9-3.8Zm0,5.7c1.1,0,1.9-.8,1.9-1.9,0-1.2-.8-1.9-1.9-1.9s-1.9.8-1.9,1.9c0,1.2.8,1.9,1.9,1.9Zm-5.2-8.4c.1,0,.2.1.2.2v9.8c0,.1-.1.2-.2.2h-1.6c-.1,0-.2-.1-.2-.2v-.9c-.5.8-1.3,1.2-2.4,1.2-1.8,0-3.3-1.4-3.3-3.8,0-2.5,1.5-3.8,3.2-3.8,1.1,0,1.9.5,2.4,1.2v-3.8c0-.1.1-.2.2-.2,0,0,1.7.1,1.7.1Zm-3.6,8.4c1.1,0,1.9-.8,1.9-1.9,0-1.2-.8-1.9-1.9-1.9s-1.9.8-1.9,1.9c.1,1.2.9,1.9,1.9,1.9Zm-4.8-.5c0,1.6-1.2,2.4-3.1,2.4-1.3,0-2.5-.4-3.1-1.1q-.1-.1,0-.2l.9-1.2c.1-.1.2-.1.2,0,.5.5,1.2.8,2.1.8.5,0,1-.1,1-.6,0-.4-.4-.5-1.6-.7-1.1-.2-2.4-.7-2.4-2.3,0-1.5,1.2-2.3,3-2.3,1.2,0,2.1.4,2.8,1,.1.1.1.2,0,.2l-.9,1.1c-.1.1-.2.1-.2,0-.4-.4-1.1-.6-1.8-.6-.6,0-.9.2-.9.5,0,.4.4.4,1.7.7,1.2.3,2.3.8,2.3,2.3Zm-7.3,0c0,1.6-1.2,2.4-3.1,2.4-1.3,0-2.5-.4-3.1-1.1v-.2l.9-1.2c.1-.1.2-.1.2,0,.5.5,1.2.8,2.1.8.5,0,1-.1,1-.6,0-.4-.4-.5-1.6-.7-1.1-.2-2.4-.7-2.4-2.3,0-1.5,1.1-2.3,3-2.3,1.2,0,2.1.4,2.8,1,.1.1.1.2,0,.2l-.9,1.1c-.1.1-.2.1-.2,0-.4-.4-1.1-.6-1.8-.6-.6,0-.9.2-.9.5,0,.4.4.4,1.7.7,1.2.3,2.3.8,2.3,2.3Zm-10.7-5.2c2.1,0,3.1.9,3.1,2.9v4.3c0,.1-.1.2-.2.2h-1.5c-.1,0-.2-.1-.2-.2v-.8c-.4.6-1.1,1.1-2.2,1.1-1.4,0-2.4-.9-2.4-2.3,0-1.3,1-2.1,2.3-2.3l2-.2c.3,0,.4-.1.4-.3v-.1c0-.4-.4-.7-1.3-.7-.7,0-1.4.2-1.7.8,0,.1-.1.1-.2,0l-1.1-.8c-.1,0-.1-.1,0-.2.3-.9,1.5-1.4,3-1.4Zm1.2,4.5v-.3l-1.8.2c-.6.1-.9.4-.9.8,0,.5.4.8,1,.8,1.1,0,1.7-.7,1.7-1.5Zm-5.9-7.1v9.8c0,.1-.1.2-.2.2h-1.6c-.1,0-.2-.1-.2-.2v-9.8c0-.1.1-.2.2-.2h1.6s.2.2.2.2Zm-3.7,2.8c.1,0,.2.1.2.2v6.6c0,1.9-.9,3.6-3.9,3.6-1.4,0-2.3-.4-3.1-1-.1,0-.1-.1,0-.3l.7-1.2c0-.1.2-.1.2,0,.6.5,1.2.8,2,.8,1.6,0,2.1-.8,2.1-1.9v-.5c-.5.7-1.3,1.1-2.3,1.1-1.9,0-3.4-1.3-3.4-3.7s1.5-3.8,3.3-3.8c1.1,0,1.9.5,2.3,1.2v-.8c0-.1.1-.2.2-.2,0,0,1.7-.1,1.7-.1Zm-3.5,5.5c1.1,0,1.9-.8,1.9-1.9,0-1.2-.8-1.9-1.9-1.9s-1.9.8-1.9,1.9c0,1.2.8,1.9,1.9,1.9"></path><path id="path16" class="cls-1" d="m17.8,26.7H.1c0,2.5,2,4.4,4.4,4.4h13.3c2.4,0,4.4-2,4.4-4.4V8.5c0-.1-.1-.2-.2-.2h-4.1c-.1,0-.2.1-.2.2v18.2h.1Zm0-26.7c2.4,0,4.4,2,4.4,4.5H4.5v18.3c0,.1-.1.2-.2.2H.2c-.1,0-.2-.1-.2-.2V4.5C0,2,2,0,4.4,0h13.4"></path></svg> 