<svg fill="none" height="88" viewBox="0 0 88 88" width="88" xmlns="http://www.w3.org/2000/svg"><circle cx="44" cy="44" fill="#1c1d1f" r="44"/><path d="m65.9567 42.6233-20.6033-20.6033c-.8634-.8633-2.0534-1.3533-3.29-1.3533h-16.73c-2.5667 0-4.6667 2.1-4.6667 4.6666v16.73c0 1.2367.49 2.4267 1.3767 3.29l20.6033 20.6034c1.82 1.82 4.7833 1.82 6.6033 0l16.73-16.73c1.82-1.82 1.82-4.76-.0233-6.6034zm-34.79-7.9566c-1.9367 0-3.5-1.5634-3.5-3.5 0-1.9367 1.5633-3.5 3.5-3.5s3.5 1.5633 3.5 3.5c0 1.9366-1.5633 3.5-3.5 3.5z" fill="#fff"/></svg>