<svg fill="none" height="88" viewBox="0 0 88 88" width="88" xmlns="http://www.w3.org/2000/svg"><circle cx="44" cy="44" fill="#1c1d1f" r="44"/><path d="m52.2835 46.3333c1.75 0 3.29-.9566 4.0833-2.4033l8.3534-15.1433c.8633-1.54-.2567-3.4534-2.03-3.4534h-34.5334l-2.1933-4.6666h-7.63v4.6666h4.6667l8.4 17.71-3.15 5.6934c-1.7034 3.1266.5366 6.93 4.0833 6.93h28v-4.6667h-28l2.5667-4.6667zm-21.91-16.3333h28.35l-6.44 11.6667h-16.38zm1.96 28c-2.5667 0-4.6433 2.1-4.6433 4.6667 0 2.5666 2.0766 4.6666 4.6433 4.6666s4.6667-2.1 4.6667-4.6666c0-2.5667-2.1-4.6667-4.6667-4.6667zm23.3333 0c-2.5666 0-4.6433 2.1-4.6433 4.6667 0 2.5666 2.0767 4.6666 4.6433 4.6666 2.5667 0 4.6667-2.1 4.6667-4.6666 0-2.5667-2.1-4.6667-4.6667-4.6667z" fill="#fff"/></svg>