<svg fill="none" height="88" viewBox="0 0 88 88" width="88" xmlns="http://www.w3.org/2000/svg"><circle cx="44" cy="44" fill="#1c1d1f" r="44"/><path d="m58 34h-2.3333v-4.6667c0-6.44-5.2267-11.6666-11.6667-11.6666s-11.6667 5.2266-11.6667 11.6666v4.6667h-2.3333c-2.5667 0-4.6667 2.1-4.6667 4.6667v23.3333c0 2.5667 2.1 4.6667 4.6667 4.6667h28c2.5667 0 4.6667-2.1 4.6667-4.6667v-23.3333c0-2.5667-2.1-4.6667-4.6667-4.6667zm-14 21c-2.5667 0-4.6667-2.1-4.6667-4.6667 0-2.5666 2.1-4.6666 4.6667-4.6666s4.6667 2.1 4.6667 4.6666c0 2.5667-2.1 4.6667-4.6667 4.6667zm7.2333-21h-14.4666v-4.6667c0-3.99 3.2433-7.2333 7.2333-7.2333s7.2333 3.2433 7.2333 7.2333z" fill="#fff"/></svg>