<svg fill="none" height="88" viewBox="0 0 88 88" width="88" xmlns="http://www.w3.org/2000/svg"><circle cx="44" cy="44" fill="#1c1d1f" r="44"/><path d="m48.1525 51.7002 14 14 4.9233-5.04-14-14zm8.68-12.1333c-.91 0-1.89-.1167-2.66-.4434l-26.5767 26.46-4.9233-4.9233 17.29-17.2667-4.13-4.1533-1.68 1.6333-3.3833-3.29v6.6733l-1.6334 1.6334-8.2133-8.3067 1.6333-1.6333h6.5567l-3.2667-3.29 8.3067-8.3067c2.73-2.73 7.1167-2.73 9.8467 0l-4.9234 5.04 3.29 3.2667-1.6566 1.6566 4.1766 4.1534 4.2467-4.3867c-.3267-.77-.4667-1.75-.4667-2.6133 0-4.5967 3.64-8.2134 8.1667-8.2134 1.3767 0 2.59.3267 3.6866.98l-6.2299 6.23 3.5 3.5 6.2299-6.23c.6534 1.0967.98 2.2634.98 3.7334 0 4.48-3.6166 8.0967-8.1666 8.0967z" fill="#fff"/></svg>